<?xml version="1.0" encoding="UTF-8"?>
<svg width="204px" height="48px" viewBox="0 0 204 48" version="1.1" xmlns="http://www.w3.org/2000/svg" xmlns:xlink="http://www.w3.org/1999/xlink">
    <title>SODA</title>
    <g id="LOGO-EXPLORATION" stroke="none" stroke-width="1" fill="none" fill-rule="evenodd">
        <g id="soda-logos" transform="translate(-49.000000, -429.000000)">
            <g id="SODA" transform="translate(49.000000, 429.000000)">
                <path d="M35.8235294,3.99426112 L31.3627451,15.7015782 C29.372549,14.3242468 25.7352941,12.2582496 22.0294118,12.2582496 C21.1372549,12.2582496 19.7647059,12.3959828 18.872549,13.0846485 C18.254902,13.5667145 18.0490196,14.0487805 18.0490196,14.7374462 C18.0490196,15.7015782 18.1862745,16.5968436 20.7254902,17.1477762 L26.0098039,18.3185079 C30.0588235,19.2137733 32.4607843,20.866571 33.8333333,22.2439024 C36.7156863,25.0674319 37.3333333,28.579627 37.3333333,31.3342898 C37.3333333,35.2596844 36.3039216,38.9096126 33.2156863,42.1463415 C30.6078431,44.8321377 25.6666667,48 17.0882353,48 C10.0882353,48 5.42156863,46.0028694 1.50980392,44.4189383 L0,43.7991392 L5.00980392,30.8522238 L6.79411765,32.2295552 C8.50980392,33.5380201 12.0098039,35.6040172 16.0588235,35.6040172 C18.3235294,35.6040172 19.2843137,35.0530846 19.627451,34.7776184 C20.3823529,34.1578192 20.5196078,33.4002869 20.5196078,32.7116212 C20.5196078,32.2984218 20.4509804,31.6097561 19.9705882,31.1276901 C19.4215686,30.5767575 18.5294118,30.3701578 16.8137255,30.025825 L12.7647059,29.2682927 C10.1568627,28.7862267 7.34313725,27.9598278 4.80392157,25.3428981 C2.47058824,22.9325681 1.50980392,20.1779053 1.50980392,16.8723099 C1.50980392,12.6025825 2.95098039,8.95265423 5.97058824,5.92252511 C9.47058824,2.34146341 14.6176471,0 21.8921569,0 C25.5294118,0 30.2647059,0.619799139 35.8235294,3.99426112 Z" id="Path" fill="#000000" fill-rule="nonzero"></path>
                <path d="M63,0 C75.4904632,0 87,9.22821577 87,24.033195 C87,38.1078838 75.6866485,48 63,48 C49.0054496,48 39,37.5103734 39,23.966805 C39,9.69294606 49.9209809,0 63,0 Z M63,15 C57.4724409,15 54,18.65625 54,23.7890625 C54,29.625 57.6850394,33 63,33 C68.1023622,33 72,29.484375 72,23.7890625 C72,18.375 68.4566929,15 63,15 Z" id="Combined-Shape" fill="#000000"></path>
                <path d="M110.39159,1.46666667 C125.680499,1.46666667 132.859638,9.4 132.859638,24.0666667 C132.859638,39.3333333 124.94929,46.6666667 108.729752,46.6666667 L90.9148499,46.6666667 C90.3539796,46.6666667 90.2605012,46.7252604 90.2510073,46.1832682 L90.2501147,2.13333333 C90.2501147,1.6 90.3165883,1.46666667 90.9148499,1.46666667 L110.39159,1.46666667 Z M108.596805,14 L105.406076,14 L105.406076,34.1333333 L108.463858,34.1333333 C112.917584,34.1333333 116.905994,31.6666667 116.905994,23.8666667 C116.905994,16.6 113.316425,14 108.596805,14 Z" id="Combined-Shape" fill="#000000"></path>
                <path d="M153.753333,7.10542736e-15 L178.506667,47 L162.84,47 L159.678271,41.3609792 L147.750062,41.3609792 L144.666667,47 L129,47 L153.753333,7.10542736e-15 Z M153.753333,23.0613333 L150.011937,31.4586667 L157.494729,31.4586667 L153.753333,23.0613333 Z" id="Combined-Shape" fill="#000000" fill-rule="nonzero"></path>
                <path d="M198,46.6666667 C194.686292,46.6666667 192,43.9803752 192,40.6666667 C192,37.3529582 194.686292,34.6666667 198,34.6666667 C201.313708,34.6666667 204,37.3529582 204,40.6666667 C204,43.9803752 201.313708,46.6666667 198,46.6666667 Z" id="Oval-Copy-2" fill="#00D891"></path>
                <path d="M179.333333,14.6666667 C176.019625,14.6666667 173.333333,11.9803752 173.333333,8.66666667 C173.333333,5.35295817 176.019625,2.66666667 179.333333,2.66666667 C182.647042,2.66666667 185.333333,5.35295817 185.333333,8.66666667 C185.333333,11.9803752 182.647042,14.6666667 179.333333,14.6666667 Z" id="Oval-Copy-3" fill="#00D891"></path>
                <path d="M188.666667,30.6666667 C185.352958,30.6666667 182.666667,27.9803752 182.666667,24.6666667 C182.666667,21.3529582 185.352958,18.6666667 188.666667,18.6666667 C191.980375,18.6666667 194.666667,21.3529582 194.666667,24.6666667 C194.666667,27.9803752 191.980375,30.6666667 188.666667,30.6666667 Z" id="Oval-Copy-7" fill="#00D891"></path>
            </g>
        </g>
    </g>
</svg>
