<?xml version="1.0" encoding="UTF-8"?>
<svg width="204px" height="48px" viewBox="0 0 204 48" version="1.1" xmlns="http://www.w3.org/2000/svg">
    <!-- Generator: Sketch 54.1 (76490) - https://sketchapp.com -->
    <title>SODA FULL COLOR</title>
    <desc>Created with Sketch.</desc>
    <g id="Page-1" stroke="none" stroke-width="1" fill="none" fill-rule="evenodd">
        <g id="soda-logo-final" transform="translate(-60.000000, -273.000000)">
            <g id="SODA-FULL-COLOR" transform="translate(60.000000, 273.000000)">
                <path d="M35.8235294,3.99426112 L31.3627451,15.7015782 C29.372549,14.3242468 25.7352941,12.2582496 22.0294118,12.2582496 C21.1372549,12.2582496 19.7647059,12.3959828 18.872549,13.0846485 C18.254902,13.5667145 18.0490196,14.0487805 18.0490196,14.7374462 C18.0490196,15.7015782 18.1862745,16.5968436 20.7254902,17.1477762 L26.0098039,18.3185079 C30.0588235,19.2137733 32.4607843,20.866571 33.8333333,22.2439024 C36.7156863,25.0674319 37.3333333,28.579627 37.3333333,31.3342898 C37.3333333,35.2596844 36.3039216,38.9096126 33.2156863,42.1463415 C30.6078431,44.8321377 25.6666667,48 17.0882353,48 C10.0882353,48 5.42156863,46.0028694 1.50980392,44.4189383 L0,43.7991392 L5.00980392,30.8522238 L6.79411765,32.2295552 C8.50980392,33.5380201 12.0098039,35.6040172 16.0588235,35.6040172 C18.3235294,35.6040172 19.2843137,35.0530846 19.627451,34.7776184 C20.3823529,34.1578192 20.5196078,33.4002869 20.5196078,32.7116212 C20.5196078,32.2984218 20.4509804,31.6097561 19.9705882,31.1276901 C19.4215686,30.5767575 18.5294118,30.3701578 16.8137255,30.025825 L12.7647059,29.2682927 C10.1568627,28.7862267 7.34313725,27.9598278 4.80392157,25.3428981 C2.47058824,22.9325681 1.50980392,20.1779053 1.50980392,16.8723099 C1.50980392,12.6025825 2.95098039,8.95265423 5.97058824,5.92252511 C9.47058824,2.34146341 14.6176471,0 21.8921569,0 C25.5294118,0 30.2647059,0.619799139 35.8235294,3.99426112 Z" id="Path" fill="#000000" fill-rule="nonzero"></path>
                <path d="M62.5971323,0 C75.0514073,0 86.5275979,9.22821577 86.5275979,24.033195 C86.5275979,38.1078838 75.2470242,48 62.5971323,48 C48.6431278,48 38.6666667,37.5103734 38.6666667,23.966805 C38.6666667,9.69294606 49.5560066,0 62.5971323,0 Z M62.5971323,32 C67.119425,32 70.5739541,28.875 70.5739541,23.8125 C70.5739541,19 67.4334731,16 62.5971323,16 C57.6979818,16 54.6203104,19.25 54.6203104,23.8125 C54.6203104,29 57.8864107,32 62.5971323,32 Z" id="Combined-Shape" fill="#000000"></path>
                <path d="M110.39159,1.46666667 C125.680499,1.46666667 132.859638,9.4 132.859638,24.0666667 C132.859638,39.3333333 124.94929,46.6666667 108.729752,46.6666667 L90.9148499,46.6666667 C90.3165883,46.6666667 90.2501147,46.7333333 90.2501147,46.0666667 L90.2501147,2.13333333 C90.2501147,1.6 90.3165883,1.46666667 90.9148499,1.46666667 L110.39159,1.46666667 Z M108.463858,34.1333333 C112.917584,34.1333333 116.905994,31.6666667 116.905994,23.8666667 C116.905994,16.6 113.316425,14 108.596805,14 L105.406076,14 L105.406076,34.1333333 L108.463858,34.1333333 Z" id="Combined-Shape" fill="#000000"></path>
                <path d="M154.596478,0 L181.333333,46.6666667 L165.332026,46.6666667 C163.69785,44.0444444 162.608399,42.1777778 162.063674,41.0666667 L146.198548,41.0666667 C145.608429,42.3111111 144.587069,44.1777778 143.134468,46.6666667 L128.154521,46.6666667 L154.596478,0 Z M154.854236,22.6666723 C154.851816,22.672267 154.389875,23.7401785 153.796394,24.920176 C152.606312,27.3427162 150.821188,30.6666667 150.821188,30.6666667 L158.821188,30.6666667 C158.821188,30.6666667 157.168295,27.286378 155.912097,24.920176 C155.318403,23.7397537 154.856342,22.6714981 154.854253,22.6666667 L154.854236,22.6666723 Z" id="Combined-Shape" fill="#000000"></path>
                <path d="M198,46.6666667 C194.686292,46.6666667 192,43.9803752 192,40.6666667 C192,37.3529582 194.686292,34.6666667 198,34.6666667 C201.313708,34.6666667 204,37.3529582 204,40.6666667 C204,43.9803752 201.313708,46.6666667 198,46.6666667 Z" id="Oval-Copy-2" fill="#00D891"></path>
                <path d="M179.333333,14.6666667 C176.019625,14.6666667 173.333333,11.9803752 173.333333,8.66666667 C173.333333,5.35295817 176.019625,2.66666667 179.333333,2.66666667 C182.647042,2.66666667 185.333333,5.35295817 185.333333,8.66666667 C185.333333,11.9803752 182.647042,14.6666667 179.333333,14.6666667 Z" id="Oval-Copy-3" fill="#00D891"></path>
                <path d="M188.666667,30.6666667 C185.352958,30.6666667 182.666667,27.9803752 182.666667,24.6666667 C182.666667,21.3529582 185.352958,18.6666667 188.666667,18.6666667 C191.980375,18.6666667 194.666667,21.3529582 194.666667,24.6666667 C194.666667,27.9803752 191.980375,30.6666667 188.666667,30.6666667 Z" id="Oval-Copy-7" fill="#00D891"></path>
            </g>
        </g>
    </g>
</svg>